<mxfile host="app.diagrams.net" modified="2023-05-18T05:09:35.356Z" agent="Mozilla/5.0 (Windows NT 10.0; Win64; x64) AppleWebKit/537.36 (KHTML, like Gecko) Chrome/113.0.0.0 Safari/537.36" etag="2uIvh6BcbKr9ORiMg8Qs" version="21.3.2" type="github">
  <diagram name="Page-1" id="Ywe14RbW6P2eDKHMHFVZ">
    <mxGraphModel dx="1114" dy="593" grid="1" gridSize="10" guides="1" tooltips="1" connect="1" arrows="1" fold="1" page="1" pageScale="1" pageWidth="850" pageHeight="1100" math="0" shadow="0">
      <root>
        <mxCell id="0" />
        <mxCell id="1" parent="0" />
        <mxCell id="HHEKbCP6B28gTf2cOCdv-2" value="Actor" style="shape=umlActor;verticalLabelPosition=bottom;verticalAlign=top;html=1;outlineConnect=0;" parent="1" vertex="1">
          <mxGeometry x="50" y="30" width="30" height="60" as="geometry" />
        </mxCell>
        <mxCell id="HHEKbCP6B28gTf2cOCdv-20" style="edgeStyle=orthogonalEdgeStyle;rounded=0;orthogonalLoop=1;jettySize=auto;html=1;exitX=0.5;exitY=1;exitDx=0;exitDy=0;" parent="1" source="HHEKbCP6B28gTf2cOCdv-3" target="HHEKbCP6B28gTf2cOCdv-19" edge="1">
          <mxGeometry relative="1" as="geometry" />
        </mxCell>
        <mxCell id="HHEKbCP6B28gTf2cOCdv-3" value="Developer" style="text;html=1;strokeColor=none;fillColor=none;align=center;verticalAlign=middle;whiteSpace=wrap;rounded=0;" parent="1" vertex="1">
          <mxGeometry x="90" y="45" width="60" height="30" as="geometry" />
        </mxCell>
        <mxCell id="HHEKbCP6B28gTf2cOCdv-4" value="WorkMOn1" style="shape=hexagon;perimeter=hexagonPerimeter2;whiteSpace=wrap;html=1;fixedSize=1;" parent="1" vertex="1">
          <mxGeometry x="160" y="190" width="120" height="80" as="geometry" />
        </mxCell>
        <mxCell id="HHEKbCP6B28gTf2cOCdv-27" style="edgeStyle=orthogonalEdgeStyle;rounded=0;orthogonalLoop=1;jettySize=auto;html=1;exitX=1;exitY=0.5;exitDx=0;exitDy=0;entryX=1;entryY=0.5;entryDx=0;entryDy=0;" parent="1" source="HHEKbCP6B28gTf2cOCdv-5" target="HHEKbCP6B28gTf2cOCdv-4" edge="1">
          <mxGeometry relative="1" as="geometry" />
        </mxCell>
        <mxCell id="HHEKbCP6B28gTf2cOCdv-5" value="WorkMOn2" style="shape=hexagon;perimeter=hexagonPerimeter2;whiteSpace=wrap;html=1;fixedSize=1;" parent="1" vertex="1">
          <mxGeometry x="160" y="350" width="120" height="80" as="geometry" />
        </mxCell>
        <mxCell id="HHEKbCP6B28gTf2cOCdv-22" style="edgeStyle=orthogonalEdgeStyle;rounded=0;orthogonalLoop=1;jettySize=auto;html=1;" parent="1" source="HHEKbCP6B28gTf2cOCdv-6" target="HHEKbCP6B28gTf2cOCdv-12" edge="1">
          <mxGeometry relative="1" as="geometry">
            <Array as="points">
              <mxPoint x="700" y="60" />
              <mxPoint x="700" y="125" />
              <mxPoint x="545" y="125" />
            </Array>
          </mxGeometry>
        </mxCell>
        <mxCell id="HHEKbCP6B28gTf2cOCdv-29" style="edgeStyle=orthogonalEdgeStyle;rounded=0;orthogonalLoop=1;jettySize=auto;html=1;entryX=0;entryY=0.5;entryDx=0;entryDy=0;" parent="1" source="HHEKbCP6B28gTf2cOCdv-6" target="HHEKbCP6B28gTf2cOCdv-28" edge="1">
          <mxGeometry relative="1" as="geometry" />
        </mxCell>
        <mxCell id="HHEKbCP6B28gTf2cOCdv-6" value="DB Triggers" style="shape=cylinder3;whiteSpace=wrap;html=1;boundedLbl=1;backgroundOutline=1;size=15;" parent="1" vertex="1">
          <mxGeometry x="480" y="20" width="60" height="80" as="geometry" />
        </mxCell>
        <mxCell id="HHEKbCP6B28gTf2cOCdv-17" style="edgeStyle=orthogonalEdgeStyle;rounded=0;orthogonalLoop=1;jettySize=auto;html=1;entryX=0;entryY=0.5;entryDx=0;entryDy=0;exitX=0;exitY=0.5;exitDx=0;exitDy=0;" parent="1" source="HHEKbCP6B28gTf2cOCdv-5" target="HHEKbCP6B28gTf2cOCdv-4" edge="1">
          <mxGeometry relative="1" as="geometry" />
        </mxCell>
        <mxCell id="HHEKbCP6B28gTf2cOCdv-18" style="edgeStyle=orthogonalEdgeStyle;rounded=0;orthogonalLoop=1;jettySize=auto;html=1;" parent="1" source="HHEKbCP6B28gTf2cOCdv-8" edge="1">
          <mxGeometry relative="1" as="geometry">
            <mxPoint x="140" y="310" as="targetPoint" />
          </mxGeometry>
        </mxCell>
        <mxCell id="HHEKbCP6B28gTf2cOCdv-8" value="Workflor Process Manager" style="whiteSpace=wrap;html=1;aspect=fixed;" parent="1" vertex="1">
          <mxGeometry x="25" y="270" width="80" height="80" as="geometry" />
        </mxCell>
        <mxCell id="HHEKbCP6B28gTf2cOCdv-9" value="Group1" style="text;html=1;strokeColor=none;fillColor=none;align=center;verticalAlign=middle;whiteSpace=wrap;rounded=0;" parent="1" vertex="1">
          <mxGeometry x="190" y="190" width="60" height="30" as="geometry" />
        </mxCell>
        <mxCell id="HHEKbCP6B28gTf2cOCdv-10" value="Group2" style="text;html=1;strokeColor=none;fillColor=none;align=center;verticalAlign=middle;whiteSpace=wrap;rounded=0;" parent="1" vertex="1">
          <mxGeometry x="190" y="350" width="60" height="30" as="geometry" />
        </mxCell>
        <mxCell id="HHEKbCP6B28gTf2cOCdv-16" style="edgeStyle=orthogonalEdgeStyle;rounded=0;orthogonalLoop=1;jettySize=auto;html=1;" parent="1" source="HHEKbCP6B28gTf2cOCdv-11" target="HHEKbCP6B28gTf2cOCdv-13" edge="1">
          <mxGeometry relative="1" as="geometry" />
        </mxCell>
        <mxCell id="HHEKbCP6B28gTf2cOCdv-24" style="edgeStyle=orthogonalEdgeStyle;rounded=0;orthogonalLoop=1;jettySize=auto;html=1;entryX=1;entryY=0.5;entryDx=0;entryDy=0;" parent="1" source="HHEKbCP6B28gTf2cOCdv-11" target="HHEKbCP6B28gTf2cOCdv-4" edge="1">
          <mxGeometry relative="1" as="geometry">
            <mxPoint x="360" y="230" as="targetPoint" />
          </mxGeometry>
        </mxCell>
        <mxCell id="HHEKbCP6B28gTf2cOCdv-11" value="&lt;h1&gt;S_ESCL_STATE&lt;/h1&gt;&lt;div&gt;&lt;br&gt;&lt;/div&gt;&lt;div&gt;Records get inserted if duration given&lt;/div&gt;" style="text;html=1;strokeColor=none;fillColor=none;spacing=5;spacingTop=-20;whiteSpace=wrap;overflow=hidden;rounded=0;" parent="1" vertex="1">
          <mxGeometry x="450" y="350" width="190" height="120" as="geometry" />
        </mxCell>
        <mxCell id="HHEKbCP6B28gTf2cOCdv-15" style="edgeStyle=orthogonalEdgeStyle;rounded=0;orthogonalLoop=1;jettySize=auto;html=1;exitX=1;exitY=0.5;exitDx=0;exitDy=0;" parent="1" source="HHEKbCP6B28gTf2cOCdv-12" target="HHEKbCP6B28gTf2cOCdv-13" edge="1">
          <mxGeometry relative="1" as="geometry">
            <Array as="points">
              <mxPoint x="685" y="210" />
              <mxPoint x="685" y="140" />
              <mxPoint x="825" y="140" />
            </Array>
          </mxGeometry>
        </mxCell>
        <mxCell id="HHEKbCP6B28gTf2cOCdv-26" style="edgeStyle=orthogonalEdgeStyle;rounded=0;orthogonalLoop=1;jettySize=auto;html=1;" parent="1" source="HHEKbCP6B28gTf2cOCdv-12" edge="1">
          <mxGeometry relative="1" as="geometry">
            <mxPoint x="360" y="230" as="targetPoint" />
          </mxGeometry>
        </mxCell>
        <mxCell id="HHEKbCP6B28gTf2cOCdv-12" value="&lt;h1&gt;S_ESCL_REQ&lt;/h1&gt;&lt;div&gt;Records get inserted after triggering&lt;/div&gt;" style="text;html=1;strokeColor=none;fillColor=none;spacing=5;spacingTop=-20;whiteSpace=wrap;overflow=hidden;rounded=0;" parent="1" vertex="1">
          <mxGeometry x="450" y="150" width="190" height="120" as="geometry" />
        </mxCell>
        <mxCell id="HHEKbCP6B28gTf2cOCdv-13" value="&lt;h1&gt;S_ESCL_LOG&lt;/h1&gt;&lt;div&gt;&lt;br&gt;&lt;/div&gt;&lt;div&gt;Records get inserted after processed&lt;/div&gt;&lt;div&gt;&lt;br&gt;&lt;/div&gt;" style="text;html=1;strokeColor=none;fillColor=none;spacing=5;spacingTop=-20;whiteSpace=wrap;overflow=hidden;rounded=0;" parent="1" vertex="1">
          <mxGeometry x="730" y="190" width="190" height="120" as="geometry" />
        </mxCell>
        <mxCell id="HHEKbCP6B28gTf2cOCdv-21" style="edgeStyle=orthogonalEdgeStyle;rounded=0;orthogonalLoop=1;jettySize=auto;html=1;entryX=0;entryY=0;entryDx=0;entryDy=52.5;entryPerimeter=0;" parent="1" source="HHEKbCP6B28gTf2cOCdv-19" target="HHEKbCP6B28gTf2cOCdv-6" edge="1">
          <mxGeometry relative="1" as="geometry" />
        </mxCell>
        <mxCell id="HHEKbCP6B28gTf2cOCdv-19" value="Workflow Policy&amp;nbsp;" style="rounded=1;whiteSpace=wrap;html=1;" parent="1" vertex="1">
          <mxGeometry x="230" y="30" width="130" height="60" as="geometry" />
        </mxCell>
        <mxCell id="HHEKbCP6B28gTf2cOCdv-28" value="update column/field&lt;br&gt;" style="rounded=1;whiteSpace=wrap;html=1;" parent="1" vertex="1">
          <mxGeometry x="640" y="30" width="120" height="60" as="geometry" />
        </mxCell>
        <mxCell id="HHEKbCP6B28gTf2cOCdv-30" value="Design Repository&lt;br&gt;(DR)" style="ellipse;whiteSpace=wrap;html=1;" parent="1" vertex="1">
          <mxGeometry x="280" y="620" width="120" height="80" as="geometry" />
        </mxCell>
        <mxCell id="HHEKbCP6B28gTf2cOCdv-31" value="Runtime Repository&lt;br&gt;(RR)" style="ellipse;whiteSpace=wrap;html=1;" parent="1" vertex="1">
          <mxGeometry x="630" y="620" width="120" height="80" as="geometry" />
        </mxCell>
        <mxCell id="HHEKbCP6B28gTf2cOCdv-32" value="&lt;font style=&quot;font-size: 19px;&quot;&gt;IP 19 --&amp;gt;&lt;br&gt;Both DEV and UAT can be DR&amp;nbsp;&lt;br&gt;&lt;/font&gt;" style="text;html=1;strokeColor=none;fillColor=none;align=center;verticalAlign=middle;whiteSpace=wrap;rounded=0;" parent="1" vertex="1">
          <mxGeometry x="420" y="550" width="170" height="100" as="geometry" />
        </mxCell>
        <mxCell id="HHEKbCP6B28gTf2cOCdv-33" value="&lt;font style=&quot;font-size: 19px;&quot;&gt;After IP 20 --&amp;gt;&lt;br&gt;Only DEV is DR&lt;br&gt;others are RR&amp;nbsp;&lt;br&gt;&lt;/font&gt;" style="text;html=1;strokeColor=none;fillColor=none;align=center;verticalAlign=middle;whiteSpace=wrap;rounded=0;" parent="1" vertex="1">
          <mxGeometry x="430" y="720" width="170" height="100" as="geometry" />
        </mxCell>
        <mxCell id="HHEKbCP6B28gTf2cOCdv-34" value="" style="rhombus;whiteSpace=wrap;html=1;" parent="1" vertex="1">
          <mxGeometry x="465" y="640" width="80" height="80" as="geometry" />
        </mxCell>
        <mxCell id="HHEKbCP6B28gTf2cOCdv-37" value="&lt;h1 style=&quot;font-size: 22px;&quot;&gt;S_BUSCOMP --&amp;gt; S_RR_BUSCOMP&lt;br&gt;S_SERVICE --&amp;gt; S_RR_SERVICE&lt;br&gt;S_LINK --&amp;gt; S_RR_LINK&lt;br&gt;S_APPLET --&amp;gt; S_RR_APPLET&lt;/h1&gt;" style="text;html=1;strokeColor=none;fillColor=none;spacing=5;spacingTop=-20;whiteSpace=wrap;overflow=hidden;rounded=0;" parent="1" vertex="1">
          <mxGeometry x="40" y="709" width="390" height="131" as="geometry" />
        </mxCell>
        <mxCell id="HHEKbCP6B28gTf2cOCdv-38" value="&lt;h1&gt;S_RR_BUSCOMP&lt;br&gt;S_RR_SERVICE&lt;br&gt;S_RR_LINK&lt;br&gt;S_RR_APPLET&lt;/h1&gt;" style="text;html=1;strokeColor=none;fillColor=none;spacing=5;spacingTop=-20;whiteSpace=wrap;overflow=hidden;rounded=0;" parent="1" vertex="1">
          <mxGeometry x="650" y="710" width="270" height="130" as="geometry" />
        </mxCell>
      </root>
    </mxGraphModel>
  </diagram>
</mxfile>
